<svg width="292" height="52" viewBox="0 0 292 52" fill="none" xmlns="http://www.w3.org/2000/svg">
<path d="M0.625 5.9375C2.04167 6.10417 3.22917 6.22917 4.1875 6.3125C5.1875 6.35417 6 6.41667 6.625 6.5C7.375 6.58333 7.95833 6.625 8.375 6.625C8.83333 6.66667 9.52083 6.64583 10.4375 6.5625C11.2292 6.47917 12.2917 6.375 13.625 6.25C15 6.125 16.75 5.9375 18.875 5.6875C17.9167 6.52083 17.1458 7.33333 16.5625 8.125C16.0208 8.875 15.6042 9.54167 15.3125 10.125C14.9375 10.8333 14.7083 11.5 14.625 12.125C14.4583 13.125 14.3125 14.5 14.1875 16.25C14.1042 17.9583 14.0208 19.8333 13.9375 21.875C13.8542 23.9167 13.8125 26.0208 13.8125 28.1875C13.8125 30.3542 13.8333 32.4167 13.875 34.375C13.9583 36.2917 14.0833 38 14.25 39.5C14.4583 41 14.7083 42.0833 15 42.75C15.4167 43.5 15.8542 44.25 16.3125 45C16.7292 45.625 17.2292 46.2708 17.8125 46.9375C18.3958 47.6042 19.0625 48.1458 19.8125 48.5625C17.3542 48.4375 15.3958 48.375 13.9375 48.375H11.6875C11.0208 48.375 10.1667 48.4167 9.125 48.5C8.25 48.5833 7.14583 48.6667 5.8125 48.75C4.47917 48.8333 2.875 48.9583 1 49.125C1.95833 48.0833 2.70833 47.0833 3.25 46.125C3.79167 45.1667 4.22917 44.3333 4.5625 43.625C4.9375 42.7917 5.1875 42 5.3125 41.25C5.47917 40.1667 5.60417 38.8333 5.6875 37.25C5.8125 35.625 5.89583 33.8958 5.9375 32.0625C5.97917 30.1875 5.97917 28.2917 5.9375 26.375C5.9375 24.4167 5.89583 22.5417 5.8125 20.75C5.72917 18.9583 5.60417 17.3333 5.4375 15.875C5.3125 14.4167 5.14583 13.25 4.9375 12.375C4.8125 11.8333 4.5625 11.2292 4.1875 10.5625C3.85417 9.97917 3.39583 9.3125 2.8125 8.5625C2.27083 7.77083 1.54167 6.89583 0.625 5.9375ZM23 42.125C23.2917 40.75 23.5 39.5417 23.625 38.5C23.7917 37.4167 23.9167 36.5208 24 35.8125C24.0833 34.9792 24.125 34.2708 24.125 33.6875C24.0833 32.9792 24.0417 32.1458 24 31.1875C24 30.1875 23.9583 29.2083 23.875 28.25C23.8333 27.25 23.7708 26.375 23.6875 25.625C23.6042 24.8333 23.5 24.2708 23.375 23.9375C23.2083 23.6042 22.9792 23.25 22.6875 22.875C22.1042 22.1667 21.25 21.4792 20.125 20.8125C21.0833 20.6042 21.8958 20.4375 22.5625 20.3125C23.2708 20.1458 23.8542 20 24.3125 19.875C24.8125 19.7083 25.25 19.5625 25.625 19.4375C25.9583 19.3125 26.3542 19.1875 26.8125 19.0625C27.1875 18.9792 27.6458 18.875 28.1875 18.75C28.7292 18.625 29.3542 18.4792 30.0625 18.3125L29.875 24C31.2083 22.4167 32.5625 21.2292 33.9375 20.4375C35.3125 19.6458 36.6042 19.0833 37.8125 18.75C39.1875 18.3333 40.5417 18.125 41.875 18.125C43.5417 18.2083 45.0833 18.4792 46.5 18.9375C47.9583 19.3958 49.2083 19.9375 50.25 20.5625C51.3333 21.1458 52.2083 21.7708 52.875 22.4375C53.5417 23.1042 53.9375 23.6875 54.0625 24.1875C54.5625 25.8125 54.6875 27.3125 54.4375 28.6875C54.1875 30.0208 53.8542 31.3333 53.4375 32.625C53.0625 33.875 52.7292 35.125 52.4375 36.375C52.1875 37.625 52.2917 38.9792 52.75 40.4375C52.9167 40.8125 53.0833 41.1875 53.25 41.5625C53.4167 41.8958 53.625 42.2292 53.875 42.5625C54.125 42.8958 54.4167 43.1667 54.75 43.375C54.2917 43.3333 53.8333 43.3125 53.375 43.3125C52.9167 43.2708 52.5 43.2292 52.125 43.1875C51.6667 43.1458 51.25 43.1042 50.875 43.0625C50.4583 43.0208 49.8958 43 49.1875 43C47.9792 43 46.1042 43.0625 43.5625 43.1875C43.9375 42.3125 44.2292 41.5833 44.4375 41C44.6875 40.375 44.8958 39.875 45.0625 39.5C45.2292 39.0417 45.3542 38.6875 45.4375 38.4375C45.9375 37.2292 46.2292 35.8542 46.3125 34.3125C46.4375 32.7708 46.3333 31.2083 46 29.625C45.875 29.0833 45.6667 28.4375 45.375 27.6875C45.0833 26.9375 44.6875 26.2083 44.1875 25.5C43.7292 24.7917 43.1667 24.1875 42.5 23.6875C41.875 23.1875 41.1458 22.8958 40.3125 22.8125C39.4792 22.7292 38.5417 22.9375 37.5 23.4375C36.5 23.9375 35.4167 24.8542 34.25 26.1875C33.375 27.3125 32.6875 28.6875 32.1875 30.3125C31.7292 31.6875 31.4167 33.4167 31.25 35.5C31.0833 37.5417 31.3333 39.9375 32 42.6875C31.4167 42.6042 30.875 42.5625 30.375 42.5625C29.875 42.5208 29.4583 42.4792 29.125 42.4375C28.7083 42.3958 28.3333 42.3542 28 42.3125C27.625 42.3125 27.2083 42.2917 26.75 42.25C26.3333 42.25 25.8125 42.25 25.1875 42.25C24.5625 42.2083 23.8333 42.1667 23 42.125ZM88.625 1.125C89.4167 1.16667 90.2708 1.1875 91.1875 1.1875C91.9792 1.1875 92.875 1.20833 93.875 1.25C94.9167 1.25 96 1.20833 97.125 1.125C96.125 1.58333 95.25 2.25 94.5 3.125C93.75 4 93.1458 4.875 92.6875 5.75C92.1042 6.79167 91.625 7.875 91.25 9C91.0417 9.66667 90.875 10.8542 90.75 12.5625C90.625 14.2292 90.5208 16.1875 90.4375 18.4375C90.3958 20.6875 90.375 23.0625 90.375 25.5625C90.375 28.0625 90.3958 30.4583 90.4375 32.75C90.4792 35 90.5417 37 90.625 38.75C90.7083 40.5 90.8125 41.7292 90.9375 42.4375C91.1042 43.2708 91.3125 44.0625 91.5625 44.8125C91.7708 45.4792 92.0417 46.1667 92.375 46.875C92.7083 47.5417 93.125 48.0833 93.625 48.5L87.25 51.375C86.9167 50.9167 86.6458 50.4375 86.4375 49.9375C86.2292 49.4792 86.0625 49.0625 85.9375 48.6875C85.7708 48.2292 85.6667 47.8125 85.625 47.4375C85.5417 46.9375 85.4583 46.3958 85.375 45.8125C85.2917 45.1875 85.1875 44.6042 85.0625 44.0625C84.9792 43.4792 84.9167 43 84.875 42.625C84.8333 42.25 84.8333 42.0208 84.875 41.9375C84.9167 41.8542 84.6667 42.2292 84.125 43.0625C83.5833 43.8542 82.7708 44.7917 81.6875 45.875C80.6458 46.9167 79.3542 47.9375 77.8125 48.9375C76.2708 49.8958 74.5417 50.5 72.625 50.75C70.6667 51 68.8542 50.625 67.1875 49.625C65.5625 48.625 64.1667 47.2292 63 45.4375C61.8333 43.6042 60.9375 41.5 60.3125 39.125C59.7292 36.7083 59.5 34.25 59.625 31.75C59.7083 30.0833 60.0833 28.6042 60.75 27.3125C61.4167 25.9792 62.25 24.8333 63.25 23.875C64.2917 22.875 65.4167 22.0417 66.625 21.375C67.875 20.6667 69.0833 20.0833 70.25 19.625C71.4583 19.1667 72.5833 18.8333 73.625 18.625C74.6667 18.4167 75.5 18.2708 76.125 18.1875C76.875 18.1458 77.7292 18.2708 78.6875 18.5625C79.5208 18.8125 80.4792 19.2292 81.5625 19.8125C82.6875 20.3958 83.9375 21.2708 85.3125 22.4375C85.0625 18.2708 84.8333 14.9375 84.625 12.4375C84.4167 9.89583 84.2083 7.95833 84 6.625C83.7917 5.04167 83.6042 3.95833 83.4375 3.375C83.2292 2.95833 82.9583 2.54167 82.625 2.125C82.3333 1.79167 81.9583 1.45833 81.5 1.125C81.0833 0.75 80.5833 0.458333 80 0.25C81.0833 0.458333 82.125 0.604167 83.125 0.6875C84.125 0.770833 85.0417 0.854167 85.875 0.9375C86.8333 1.02083 87.75 1.08333 88.625 1.125ZM72.9375 24.4375C72.1458 24.7292 71.5 25.2292 71 25.9375C70.5417 26.6458 70.1667 27.5 69.875 28.5C69.5833 29.4583 69.375 30.5 69.25 31.625C69.1667 32.7083 69.1042 33.7708 69.0625 34.8125C69.0625 35.8125 69.0625 36.7292 69.0625 37.5625C69.0625 38.3958 69.0625 39.0208 69.0625 39.4375C69.0625 39.6875 69.1042 40.1458 69.1875 40.8125C69.3125 41.4375 69.5625 42.1042 69.9375 42.8125C70.3125 43.4792 70.8333 44.0833 71.5 44.625C72.2083 45.1667 73.1458 45.4375 74.3125 45.4375C75.2708 45.3542 76.2917 45.0208 77.375 44.4375C78.3333 43.9375 79.4167 43.1458 80.625 42.0625C81.875 40.9375 83.2083 39.3333 84.625 37.25C84.5417 35.9167 84.4792 34.8125 84.4375 33.9375C84.4375 33.0625 84.4167 32.3542 84.375 31.8125C84.3333 31.1875 84.3125 30.6875 84.3125 30.3125V29.375C84.3125 29.125 84.3125 28.8542 84.3125 28.5625C84.3125 28.2708 84.3333 28 84.375 27.75C83.2083 26.9167 82.1667 26.2083 81.25 25.625C80.375 25 79.5 24.5417 78.625 24.25C77.7917 23.9167 76.9167 23.7708 76 23.8125C75.125 23.8125 74.1042 24.0208 72.9375 24.4375ZM95.8125 21.0625L107.312 21.1875C106.646 23.7292 106.146 25.8958 105.812 27.6875C105.521 29.4792 105.333 30.9792 105.25 32.1875C105.083 33.5625 105.042 34.7292 105.125 35.6875C105.25 36.5625 105.458 37.5 105.75 38.5C106 39.3333 106.375 40.2917 106.875 41.375C107.375 42.4583 108.042 43.5417 108.875 44.625C108.375 44.4583 107.833 44.3333 107.25 44.25C106.667 44.1667 106.125 44.1042 105.625 44.0625C105.042 44.0208 104.458 44.0208 103.875 44.0625C103.292 44.1042 102.646 44.1667 101.938 44.25C101.354 44.3333 100.646 44.4375 99.8125 44.5625C98.9792 44.6875 98.1042 44.8542 97.1875 45.0625C97.8125 43.1875 98.2917 41.5625 98.625 40.1875C99 38.8125 99.2708 37.6667 99.4375 36.75C99.6042 35.6667 99.7083 34.7917 99.75 34.125C99.75 33.2917 99.75 32.3542 99.75 31.3125C99.75 30.2292 99.75 29.1875 99.75 28.1875C99.75 27.1875 99.7292 26.3125 99.6875 25.5625C99.6458 24.7708 99.5625 24.2708 99.4375 24.0625L98.8125 23.4375C98.5625 23.2292 98.1875 22.9375 97.6875 22.5625C97.2292 22.1458 96.6042 21.6458 95.8125 21.0625ZM100.25 11.4375C101.125 10.9792 102 10.8542 102.875 11.0625C103.792 11.2708 104.5 11.6667 105 12.25C105.5 12.8333 105.667 13.5208 105.5 14.3125C105.375 15.1042 104.708 15.875 103.5 16.625C102.292 17.3333 101.229 17.5833 100.312 17.375C99.3958 17.1667 98.75 16.7292 98.375 16.0625C98 15.3958 97.9375 14.625 98.1875 13.75C98.4375 12.8333 99.125 12.0625 100.25 11.4375ZM127.375 38.9375C128.542 38.9375 129.625 38.8125 130.625 38.5625C131.458 38.3542 132.25 38.0208 133 37.5625C133.792 37.0625 134.312 36.3333 134.562 35.375C135.396 35.5417 136.104 35.6875 136.688 35.8125C137.271 35.8958 137.771 35.9792 138.188 36.0625C138.646 36.1875 139.042 36.2708 139.375 36.3125C139.708 36.3958 140.104 36.4792 140.562 36.5625C140.979 36.6458 141.479 36.75 142.062 36.875C142.688 36.9583 143.417 37.0833 144.25 37.25C143.625 37.1667 142.979 37.2292 142.312 37.4375C141.688 37.6458 141.083 37.875 140.5 38.125C139.833 38.4167 139.208 38.7708 138.625 39.1875C138.25 39.4375 137.812 39.8125 137.312 40.3125C136.854 40.8125 136.188 41.2917 135.312 41.75C134.438 42.2083 133.271 42.6042 131.812 42.9375C130.396 43.2292 128.562 43.3333 126.312 43.25C123.604 43.1667 121.333 42.6875 119.5 41.8125C117.667 40.8958 116.188 39.7917 115.062 38.5C113.938 37.1667 113.125 35.7292 112.625 34.1875C112.125 32.6458 111.854 31.2083 111.812 29.875C111.771 28.5417 112.167 27.1458 113 25.6875C113.833 24.2292 115 22.8958 116.5 21.6875C118.042 20.4792 119.896 19.5 122.062 18.75C124.229 17.9583 126.604 17.5625 129.188 17.5625C130.688 17.5625 132.062 17.75 133.312 18.125C134.604 18.4583 135.771 18.9167 136.812 19.5C137.896 20.0833 138.833 20.75 139.625 21.5C140.417 22.2083 141.083 22.9375 141.625 23.6875C142.167 24.4792 142.625 25.3125 143 26.1875C143.333 26.9375 143.604 27.7917 143.812 28.75C144.021 29.7083 144.083 30.6875 144 31.6875C140.833 31.7708 138.271 31.8333 136.312 31.875C134.396 31.9167 132.896 31.9375 131.812 31.9375H129H126.875C126.125 31.9375 125.146 31.9583 123.938 32C122.729 32.0417 121.25 32.1042 119.5 32.1875C119.708 33.8542 120.229 35.1458 121.062 36.0625C121.938 36.9375 122.854 37.6042 123.812 38.0625C124.896 38.5625 126.083 38.8542 127.375 38.9375ZM121.75 27.6875C123.083 27.7708 124.188 27.8333 125.062 27.875C125.979 27.9167 126.729 27.9583 127.312 28C127.938 28.0417 128.438 28.0625 128.812 28.0625H130.375C131.417 28.0625 133.354 28 136.188 27.875C136.062 26.0417 135.667 24.6458 135 23.6875C134.375 22.7292 133.708 22.0208 133 21.5625C132.167 21.0625 131.25 20.7708 130.25 20.6875C127.542 20.7292 125.521 21.2917 124.188 22.375C122.896 23.4583 122.083 25.2292 121.75 27.6875Z" fill="white"/>
<path d="M143.312 4.25C144.896 4.625 146.312 4.91667 147.562 5.125C148.854 5.29167 149.938 5.41667 150.812 5.5C151.854 5.625 152.771 5.66667 153.562 5.625C154.562 5.58333 155.812 5.4375 157.312 5.1875C158.812 4.9375 160.396 4.6875 162.062 4.4375C163.729 4.1875 165.375 3.97917 167 3.8125C168.625 3.64583 170.042 3.625 171.25 3.75C172.458 3.875 173.729 4.16667 175.062 4.625C176.396 5.04167 177.646 5.625 178.812 6.375C179.979 7.08333 180.979 7.95833 181.812 9C182.688 10.0417 183.229 11.25 183.438 12.625C183.646 13.9583 183.521 15.3958 183.062 16.9375C182.604 18.4375 181.875 19.9167 180.875 21.375C179.875 22.7917 178.625 24.1042 177.125 25.3125C175.625 26.5208 173.958 27.5 172.125 28.25C170.667 28.7917 169.083 29.2083 167.375 29.5C165.917 29.75 164.208 29.9167 162.25 30C160.333 30.0417 158.292 29.8333 156.125 29.375C155.833 30.5833 155.667 31.7083 155.625 32.75C155.625 33.75 155.667 34.6458 155.75 35.4375C155.875 36.3542 156.042 37.1875 156.25 37.9375C156.5 38.6875 156.812 39.5625 157.188 40.5625C157.521 41.3958 157.896 42.4167 158.312 43.625C158.771 44.7917 159.312 46.1042 159.938 47.5625C159.188 47.5625 158.458 47.5833 157.75 47.625C157.042 47.625 156.396 47.6458 155.812 47.6875C155.146 47.7292 154.521 47.7708 153.938 47.8125C153.271 47.8542 152.521 47.9375 151.688 48.0625C150.979 48.1458 150.083 48.2708 149 48.4375C147.958 48.6042 146.771 48.8125 145.438 49.0625C146.312 47.8125 147 46.6667 147.5 45.625C148.042 44.5417 148.438 43.6042 148.688 42.8125C148.979 41.8958 149.167 41.0625 149.25 40.3125C149.292 39.6875 149.292 38.5833 149.25 37C149.25 35.4167 149.229 33.5833 149.188 31.5C149.146 29.4167 149.083 27.2292 149 24.9375C148.917 22.6458 148.812 20.5 148.688 18.5C148.562 16.4583 148.417 14.7083 148.25 13.25C148.125 11.7917 148 10.8333 147.875 10.375C147.708 9.83333 147.417 9.25 147 8.625C146.667 8.08333 146.188 7.45833 145.562 6.75C144.979 6 144.229 5.16667 143.312 4.25ZM156.25 16.5625C156.208 16.9792 156.188 17.4167 156.188 17.875C156.188 18.75 156.25 19.875 156.375 21.25C156.667 21.9583 157.021 22.5417 157.438 23C157.896 23.4583 158.375 23.8125 158.875 24.0625C159.417 24.3125 159.958 24.4792 160.5 24.5625C161.042 24.6458 161.583 24.6875 162.125 24.6875C163.375 24.6458 164.688 24.3542 166.062 23.8125C167.896 23.0208 169.188 21.8958 169.938 20.4375C170.688 18.9792 171.083 17.4792 171.125 15.9375C171.167 14.3958 170.896 12.9792 170.312 11.6875C169.771 10.3958 169.104 9.52083 168.312 9.0625C167.646 8.77083 166.792 8.64583 165.75 8.6875C164.833 8.72917 163.688 8.95833 162.312 9.375C160.938 9.79167 159.25 10.5417 157.25 11.625C157.042 12.375 156.875 13.0417 156.75 13.625C156.625 14.2083 156.521 14.7292 156.438 15.1875C156.354 15.6875 156.292 16.1458 156.25 16.5625ZM183.812 21.0625L195.312 21.1875C194.646 23.7292 194.146 25.8958 193.812 27.6875C193.521 29.4792 193.333 30.9792 193.25 32.1875C193.083 33.5625 193.042 34.7292 193.125 35.6875C193.25 36.5625 193.458 37.5 193.75 38.5C194 39.3333 194.375 40.2917 194.875 41.375C195.375 42.4583 196.042 43.5417 196.875 44.625C196.375 44.4583 195.833 44.3333 195.25 44.25C194.667 44.1667 194.125 44.1042 193.625 44.0625C193.042 44.0208 192.458 44.0208 191.875 44.0625C191.292 44.1042 190.646 44.1667 189.938 44.25C189.354 44.3333 188.646 44.4375 187.812 44.5625C186.979 44.6875 186.104 44.8542 185.188 45.0625C185.812 43.1875 186.292 41.5625 186.625 40.1875C187 38.8125 187.271 37.6667 187.438 36.75C187.604 35.6667 187.708 34.7917 187.75 34.125C187.75 33.2917 187.75 32.3542 187.75 31.3125C187.75 30.2292 187.75 29.1875 187.75 28.1875C187.75 27.1875 187.729 26.3125 187.688 25.5625C187.646 24.7708 187.562 24.2708 187.438 24.0625L186.812 23.4375C186.562 23.2292 186.188 22.9375 185.688 22.5625C185.229 22.1458 184.604 21.6458 183.812 21.0625ZM188.25 11.4375C189.125 10.9792 190 10.8542 190.875 11.0625C191.792 11.2708 192.5 11.6667 193 12.25C193.5 12.8333 193.667 13.5208 193.5 14.3125C193.375 15.1042 192.708 15.875 191.5 16.625C190.292 17.3333 189.229 17.5833 188.312 17.375C187.396 17.1667 186.75 16.7292 186.375 16.0625C186 15.3958 185.938 14.625 186.188 13.75C186.438 12.8333 187.125 12.0625 188.25 11.4375ZM198.5 12.8125C200.417 12.9792 202.104 13.1042 203.562 13.1875C205.062 13.2292 206.312 13.2917 207.312 13.375C208.479 13.4583 209.5 13.5208 210.375 13.5625C211.292 13.6042 212.458 13.6042 213.875 13.5625C215.083 13.5625 216.625 13.5417 218.5 13.5C220.417 13.4167 222.75 13.2917 225.5 13.125L225 21.8125C223.792 23.0208 222.708 24.1458 221.75 25.1875C220.833 26.2292 220.021 27.125 219.312 27.875C218.521 28.75 217.812 29.5417 217.188 30.25C216.562 31 215.854 31.8958 215.062 32.9375C214.354 33.8542 213.5 34.9792 212.5 36.3125C211.5 37.6042 210.354 39.125 209.062 40.875C211.354 40.75 213.229 40.625 214.688 40.5C216.146 40.3333 217.292 40.1875 218.125 40.0625C219.125 39.8958 219.854 39.7708 220.312 39.6875C220.729 39.5208 221.208 39.1667 221.75 38.625C222.208 38.1667 222.771 37.4792 223.438 36.5625C224.104 35.6458 224.854 34.3958 225.688 32.8125C225.688 34.1042 225.688 35.2083 225.688 36.125C225.729 37 225.75 37.7292 225.75 38.3125V40V41.4375C225.75 41.8958 225.75 42.4583 225.75 43.125C225.792 43.7917 225.833 44.5417 225.875 45.375C224.25 45.1667 222.771 45.0208 221.438 44.9375C220.104 44.8125 218.958 44.7292 218 44.6875C216.875 44.6458 215.854 44.6458 214.938 44.6875C214.021 44.7708 212.875 44.8542 211.5 44.9375C210.333 45.0208 208.896 45.1042 207.188 45.1875C205.479 45.2708 203.458 45.375 201.125 45.5L199.75 38.875C200.5 38.5417 201.396 37.8958 202.438 36.9375C203.479 35.9792 204.479 35 205.438 34C206.521 32.8333 207.667 31.5625 208.875 30.1875C210.042 28.8125 211.188 27.4375 212.312 26.0625C213.271 24.8958 214.271 23.6875 215.312 22.4375C216.396 21.1875 217.333 20.0833 218.125 19.125C215.875 19.2083 214.021 19.375 212.562 19.625C211.104 19.8333 209.958 20.0417 209.125 20.25C208.125 20.5 207.375 20.7917 206.875 21.125C206.417 21.5 205.854 22.0625 205.188 22.8125C204.604 23.4375 203.896 24.2917 203.062 25.375C202.229 26.4167 201.271 27.7708 200.188 29.4375C200.188 28.0625 200.167 26.8333 200.125 25.75C200.083 24.625 200.042 23.6875 200 22.9375C199.917 22.0625 199.854 21.2917 199.812 20.625C199.729 19.9583 199.625 19.2292 199.5 18.4375C199.417 17.7292 199.271 16.9167 199.062 16C198.896 15.0417 198.708 13.9792 198.5 12.8125ZM227.438 12.8125C229.354 12.9792 231.042 13.1042 232.5 13.1875C234 13.2292 235.25 13.2917 236.25 13.375C237.417 13.4583 238.438 13.5208 239.312 13.5625C240.229 13.6042 241.396 13.6042 242.812 13.5625C244.021 13.5625 245.562 13.5417 247.438 13.5C249.354 13.4167 251.688 13.2917 254.438 13.125L253.938 21.8125C252.729 23.0208 251.646 24.1458 250.688 25.1875C249.771 26.2292 248.958 27.125 248.25 27.875C247.458 28.75 246.75 29.5417 246.125 30.25C245.5 31 244.792 31.8958 244 32.9375C243.292 33.8542 242.438 34.9792 241.438 36.3125C240.438 37.6042 239.292 39.125 238 40.875C240.292 40.75 242.167 40.625 243.625 40.5C245.083 40.3333 246.229 40.1875 247.062 40.0625C248.062 39.8958 248.792 39.7708 249.25 39.6875C249.667 39.5208 250.146 39.1667 250.688 38.625C251.146 38.1667 251.708 37.4792 252.375 36.5625C253.042 35.6458 253.792 34.3958 254.625 32.8125C254.625 34.1042 254.625 35.2083 254.625 36.125C254.667 37 254.688 37.7292 254.688 38.3125V40V41.4375C254.688 41.8958 254.688 42.4583 254.688 43.125C254.729 43.7917 254.771 44.5417 254.812 45.375C253.188 45.1667 251.708 45.0208 250.375 44.9375C249.042 44.8125 247.896 44.7292 246.938 44.6875C245.812 44.6458 244.792 44.6458 243.875 44.6875C242.958 44.7708 241.812 44.8542 240.438 44.9375C239.271 45.0208 237.833 45.1042 236.125 45.1875C234.417 45.2708 232.396 45.375 230.062 45.5L228.688 38.875C229.438 38.5417 230.333 37.8958 231.375 36.9375C232.417 35.9792 233.417 35 234.375 34C235.458 32.8333 236.604 31.5625 237.812 30.1875C238.979 28.8125 240.125 27.4375 241.25 26.0625C242.208 24.8958 243.208 23.6875 244.25 22.4375C245.333 21.1875 246.271 20.0833 247.062 19.125C244.812 19.2083 242.958 19.375 241.5 19.625C240.042 19.8333 238.896 20.0417 238.062 20.25C237.062 20.5 236.312 20.7917 235.812 21.125C235.354 21.5 234.792 22.0625 234.125 22.8125C233.542 23.4375 232.833 24.2917 232 25.375C231.167 26.4167 230.208 27.7708 229.125 29.4375C229.125 28.0625 229.104 26.8333 229.062 25.75C229.021 24.625 228.979 23.6875 228.938 22.9375C228.854 22.0625 228.792 21.2917 228.75 20.625C228.667 19.9583 228.562 19.2292 228.438 18.4375C228.354 17.7292 228.208 16.9167 228 16C227.833 15.0417 227.646 13.9792 227.438 12.8125ZM261.688 23.6875C261.896 23.4375 262.021 22.9792 262.062 22.3125C262.146 21.6042 262.312 20.8125 262.562 19.9375C262.854 19.0625 263.333 18.1458 264 17.1875C264.667 16.2292 265.75 15.3333 267.25 14.5C268.708 13.6667 270.125 13.1667 271.5 13C272.875 12.8333 274.188 12.8958 275.438 13.1875C276.688 13.4792 277.854 13.9375 278.938 14.5625C280.062 15.1875 281.083 15.875 282 16.625C282.625 17.125 283.125 17.8542 283.5 18.8125C283.875 19.7292 284.167 20.7708 284.375 21.9375C284.583 23.1042 284.729 24.3333 284.812 25.625C284.938 26.875 285.021 28.1042 285.062 29.3125C285.104 30.4792 285.125 31.5625 285.125 32.5625C285.167 33.5208 285.25 34.3125 285.375 34.9375C285.542 35.8542 285.833 36.6458 286.25 37.3125C286.667 37.9375 287.125 38.4792 287.625 38.9375C288.125 39.3542 288.625 39.6875 289.125 39.9375C289.625 40.1875 290.062 40.375 290.438 40.5C290.688 40.625 290.917 40.7083 291.125 40.75C291.542 40.9167 291.833 40.9167 292 40.75C291.75 41.3333 291.521 41.8333 291.312 42.25C291.104 42.6667 290.938 43.0208 290.812 43.3125C290.646 43.6458 290.5 43.9167 290.375 44.125C290.25 44.375 290.104 44.6042 289.938 44.8125C289.812 45.0208 289.646 45.25 289.438 45.5C289.229 45.75 289.021 46.0208 288.812 46.3125C288.271 46.1042 287.75 45.8542 287.25 45.5625C286.792 45.2708 286.375 45 286 44.75C285.542 44.4583 285.125 44.1667 284.75 43.875C284.375 43.5833 284.021 43.25 283.688 42.875C283.396 42.5417 283.083 42.1875 282.75 41.8125C282.458 41.4375 282.208 41.0208 282 40.5625C281.75 41.1042 281.146 41.875 280.188 42.875C279.271 43.875 278.062 44.7917 276.562 45.625C275.062 46.4167 273.312 46.9792 271.312 47.3125C269.354 47.6458 267.188 47.4167 264.812 46.625C263.771 46.2917 262.792 45.8125 261.875 45.1875C260.958 44.5208 260.167 43.7292 259.5 42.8125C258.875 41.8958 258.417 40.8542 258.125 39.6875C257.875 38.4792 257.896 37.1458 258.188 35.6875C258.479 34.2292 259 33 259.75 32C260.5 31 261.396 30.1875 262.438 29.5625C263.479 28.9375 264.646 28.4583 265.938 28.125C267.229 27.7917 268.562 27.5625 269.938 27.4375C271.021 27.3958 272.104 27.4583 273.188 27.625C274.104 27.7917 275.062 28.1042 276.062 28.5625C277.062 28.9792 277.917 29.625 278.625 30.5C278.583 28.2917 278.5 26.5417 278.375 25.25C278.292 23.9167 278.208 22.8958 278.125 22.1875C277.958 21.3542 277.812 20.7708 277.688 20.4375C277.479 20.1458 277.25 19.8125 277 19.4375C276.792 19.0625 276.521 18.7292 276.188 18.4375C275.854 18.1042 275.438 17.8333 274.938 17.625C274.438 17.4167 273.854 17.3333 273.188 17.375C272.479 17.4167 271.917 17.6042 271.5 17.9375C271.083 18.2708 270.75 18.6667 270.5 19.125C270.292 19.5417 270.167 20 270.125 20.5C270.083 21 270.104 21.4375 270.188 21.8125C270.271 22.0625 270.396 22.3333 270.562 22.625C270.729 22.875 270.958 23.1458 271.25 23.4375C271.542 23.7292 271.938 23.9792 272.438 24.1875C271.479 24.3125 270.625 24.4167 269.875 24.5C269.125 24.5417 268.479 24.6042 267.938 24.6875C267.312 24.7708 266.771 24.8333 266.312 24.875C265.854 24.9167 265.312 25 264.688 25.125C264.146 25.2083 263.479 25.3125 262.688 25.4375C261.896 25.5625 260.979 25.7292 259.938 25.9375C260.188 25.6458 260.417 25.375 260.625 25.125C260.833 24.8333 261.021 24.5833 261.188 24.375C261.354 24.125 261.521 23.8958 261.688 23.6875ZM271.062 31.125C270.312 31.1667 269.562 31.3542 268.812 31.6875C268.062 31.9792 267.396 32.4167 266.812 33C266.229 33.5417 265.729 34.1875 265.312 34.9375C264.938 35.6458 264.75 36.4375 264.75 37.3125C264.75 38.1875 264.958 38.9583 265.375 39.625C265.833 40.25 266.417 40.7708 267.125 41.1875C267.875 41.6042 268.667 41.8542 269.5 41.9375C270.375 42.0208 271.229 41.9375 272.062 41.6875C272.854 41.3958 273.604 40.9375 274.312 40.3125C275.021 39.6458 275.625 38.9375 276.125 38.1875C276.625 37.3958 276.979 36.625 277.188 35.875C277.396 35.0833 277.417 34.4375 277.25 33.9375C276.917 32.8542 276.167 32.1042 275 31.6875C273.833 31.2292 272.521 31.0417 271.062 31.125Z" fill="#E23A45"/>
</svg>
